<?xml version="1.0" encoding="utf-8"?>
<svg xmlns="http://www.w3.org/2000/svg" viewBox="6.6898 0 301.9918 45.1976" width="301.992px" height="45.1976px" preserveAspectRatio="none"><g id="title" style="font-style: normal; font-weight: 700; font-size: 72px; line-height: 1; font-family: &quot;Brandmark1 Bold Color&quot;; font-variant-ligatures: normal; text-align: center; text-anchor: middle;" transform="matrix(0.5975070595741272, 0, 0, 0.47397801280021673, -148.250732421875, -159.41055297851562)"><g id="path212961" aria-label="G" transform="translate(0 322.60132) translate(259.31168209999987 13.843759999999996) scale(1.67) translate(-375.18538 54.072)"><path class="c1" d="M88.90356,126.25342c-3.39111-1.43262-6.43701-3.49219-9.05811-6.10547 c-2.60693-2.61426-4.65869-5.66016-6.09912-9.05859c-1.4834-3.51416-2.23926-7.24414-2.23926-11.08936 s0.75586-7.5752,2.23926-11.09619c1.43311-3.3916,3.49219-6.4375,6.10645-9.05811c2.61377-2.61426,5.65967-4.66602,9.05811-6.10645 c3.51465-1.4834,7.24414-2.23193,11.08887-2.23193c4.55859,0,9.10156,1.10156,13.12012,3.19678 c3.8877,2.02344,7.31543,4.96143,9.90039,8.51123l-9.12988,6.66797c-1.5625-2.146-3.63672-3.92432-5.98438-5.14111 c-2.45508-1.2749-5.11914-1.92285-7.91309-1.92285c-4.59375,0-8.90723,1.78564-12.15479,5.0332s-5.0332,7.56055-5.0332,12.15479 c0,4.59375,1.78564,8.90723,5.0332,12.1543c3.24756,3.24805,7.56104,5.0332,12.15479,5.0332s8.90723-1.78516,12.1543-5.0332 c1.86523-1.86523,3.24805-4.08252,4.08984-6.50195h-16.2373V94.35498h28.49316v5.65234c0,3.84521-0.75586,7.5752-2.23926,11.0957 c-1.43359,3.3916-3.49219,6.4375-6.10645,9.05859c-2.61328,2.62109-5.65918,4.66602-9.05859,6.10645 c-3.51367,1.46875-7.24316,2.22461-11.08887,2.22461C96.15503,128.49268,92.42554,127.73682,88.90356,126.25342z" transform="translate(303.67831 -125.57932)" stroke-width="0" stroke-linejoin="miter" stroke-miterlimit="2" fill="#1559b6" stroke="#1559b6"/></g><g id="path212963" aria-label="U" transform="translate(0 322.60132) translate(363.4647724999998 14.565199999999997) scale(1.67) translate(-432.5525 53.64)"><path class="c1" d="M91.35181,126.53125c-2.64258-1.11621-5.01855-2.72266-7.05664-4.75977 c-2.03711-2.03809-3.63623-4.41455-4.75928-7.05713c-1.15918-2.74316-1.75-5.65234-1.75-8.64795V71.71973h11.30518v34.34668 c0,6.0127,4.89648,10.90918,10.90918,10.90918s10.9082-4.89648,10.9082-10.90918V71.71973h11.30566v34.34668 c0,2.99561-0.59082,5.90479-1.75,8.64795c-1.11621,2.64258-2.72168,5.01904-4.75977,7.05713 c-2.03809,2.03711-4.41406,3.63574-7.05664,4.75977c-2.74316,1.15918-5.65234,1.74902-8.64746,1.74902 C97.00415,128.28027,94.09595,127.69043,91.35181,126.53125z" transform="translate(354.76661 -125.35973)" stroke-width="0" stroke-linejoin="miter" stroke-miterlimit="2" fill="#1559b6" stroke="#1559b6"/></g><g id="path212965" aria-label="T" transform="translate(0 322.60132) translate(450.58135789999983 14.565199999999997) scale(1.67) translate(-479.71812 53.64)"><path class="c1" d="M94.23975,82.64648H78.97412v-10.729h42.05176v10.729h-15.48145v45.43604H94.23975V82.64648z" transform="translate(400.744 -125.55748)" stroke-width="0" stroke-linejoin="miter" stroke-miterlimit="2" fill="#1559b6" stroke="#1559b6"/></g><g id="path212967" aria-label="S" transform="translate(0 322.60132) translate(527.7405849999998 13.72352) scale(1.67) translate(-520.92125 54.144)"><path class="c1" d="M80.97266,119.83057l-1.51953-1.62793l7.43848-8.89941l1.92188,2.41211 c1.50488,1.88672,3.4707,3.43457,5.6748,4.47168c2.07324,0.979,4.3125,1.49023,6.47266,1.49023 c2.5498,0,4.72363-0.56152,6.12109-1.57666c1.25977-0.91455,1.87207-2.13867,1.87207-3.75146 c0-1.75732-0.54004-2.84424-1.91504-3.87402c-1.58496-1.18115-4.14844-2.146-7.12207-3.26904 c-0.25195-0.09375-0.51074-0.19434-0.77734-0.29541c-4.08301-1.51904-8.00684-3.08154-11.1543-5.5874 c-1.82861-1.45459-3.18213-3.06055-4.14014-4.90381c-1.06543-2.04492-1.60547-4.37061-1.60547-6.9126 c0-4.42822,1.91553-8.52539,5.38623-11.53564c3.37012-2.91602,7.89844-4.52148,12.75977-4.52148 c6.27832,0,12.40625,2.26074,17.71289,6.53076l1.91602,1.54834l-6.90625,8.98633l-2.01563-1.65625 c-3.5498-2.93066-7.45313-4.6084-10.70703-4.6084c-3.02441,0-6.56738,1.31055-6.625,5.00439 c-0.02148,1.64893,0.77051,2.54883,1.97266,3.3916c1.72168,1.20947,4.45703,2.25342,7.35254,3.3623l0.02832,0.00732 c0.4541,0.18018,0.90723,0.36035,1.36133,0.53271c4.09668,1.60596,7.9707,3.11816,10.9082,5.5376 c3.4707,2.86572,5.16309,6.63867,5.16309,11.54248c0,2.65723-0.56836,5.12695-1.69238,7.34424 c-1.05859,2.07422-2.57031,3.88184-4.51465,5.37207c-3.54199,2.70703-8.31641,4.20508-13.4502,4.20508 C93.2998,128.55029,86.229,125.45459,80.97266,119.83057z" transform="translate(441.46812 -125.59373)" stroke-width="0" stroke-linejoin="miter" stroke-miterlimit="2" fill="#1559b6" stroke="#1559b6"/></g><g id="path212969" aria-label="P" transform="translate(0 322.60132) translate(612.8131070999999 14.565199999999997) scale(1.67) translate(-566.86288 53.64)"><path class="c1" d="M115.22217,77.20288c-3.39844-3.50684-8.36035-5.28516-14.75391-5.28516H80.09033v56.16455h11.30469 V82.64673h8.4248c2.78711,0,5.01855,0.66211,6.44434,1.92236c1.41211,1.23145,2.125,3.11084,2.125,5.56592 c0,2.37646-0.69141,4.21973-2.05273,5.47998c-1.59863,1.47607-4.12598,2.2251-7.52441,2.2251h-1.89874v10.72852h2.47491 c2.92285,0,5.62305-0.35254,8.01367-1.04395c2.5498-0.7417,4.75977-1.87207,6.58203-3.36279 c1.92188-1.57666,3.40527-3.5498,4.40625-5.86816c1.00879-2.34033,1.51953-5.0332,1.51953-8.01465 C119.90967,84.89331,118.28955,80.37134,115.22217,77.20288z" transform="translate(486.77255 -125.55772)" stroke-width="0" stroke-linejoin="miter" stroke-miterlimit="2" fill="#1559b6" stroke="#1559b6" id="object-0"/></g><g id="path212971" aria-label="Y" transform="translate(0 322.60132) translate(681.0012779 14.565199999999997) scale(1.67) translate(-602.69412 53.64)"><path class="c1" d="M94.26416,103.44873L74.93115,71.91748h13.12598L99.9458,91.63281l11.83105-19.71533h13.29199 l-19.49902,31.53125v24.63379H94.26416V103.44873z" transform="translate(527.76297 -125.55748)" stroke-width="0" stroke-linejoin="miter" stroke-miterlimit="2" fill="#1559b6" stroke="#1559b6"/></g></g></svg>